<svg width="641" height="867" viewBox="0 0 641 867" fill="none" xmlns="http://www.w3.org/2000/svg">
<g clip-path="url(#clip0_151_102)">
<path d="M630 420.364L629.8 418.364C627.9 394.264 621 371.264 609.3 350.064C598.2 329.864 583.3 312.264 565.1 297.764C527.2 267.564 478.4 254.264 431.3 261.264C404 265.264 381.5 246.864 369.6 228.264C361.6 215.864 359.1 198.364 356.1 178.164C352.3 152.264 348.1 122.764 330.9 94.2644C316.6 70.5644 296.6 50.3644 272.8 35.7644C248.7 20.9644 221.4 12.1644 193.8 10.4644C146.4 7.46438 99.2999 24.4644 64.6999 56.9644C30.0999 89.4644 10.2 135.364 10.2 182.864C10.2 207.864 15.9 233.164 26.6 255.964C37.3 278.764 53.0999 299.264 72.1999 315.264C91.5999 331.464 114.4 343.364 138.4 349.664C158.8 355.064 177.8 354.464 193.2 353.964C197.3 353.864 201.4 353.664 205.3 353.664C207.8 353.664 210.3 353.764 212.5 353.864C230.1 354.964 249.9 363.764 264.1 376.864C272.1 384.164 285.4 399.264 284.9 418.464C284.7 424.364 284.9 429.964 285 435.364V435.764C285.2 444.864 285.4 453.464 284.2 458.764C280 477.464 261.5 495.764 237.1 505.264C224.8 510.064 211.2 510.264 193.9 510.464H193.7C185.6 510.564 177.1 510.664 168 511.364C136 513.464 108.1 527.864 94.4 536.164C73.2 549.064 54.5 566.864 40.5 587.464C26.3 608.464 16.7 632.564 12.9 657.164C5.59994 704.164 18.2 752.564 47.5 789.964C76.7999 827.464 120.6 851.364 167.9 855.664C173.2 856.164 178.5 856.364 183.7 856.364C237.6 856.364 289.2 830.564 321.7 787.264C346 754.964 351.1 719.864 355.2 691.664C357.2 677.764 359.2 664.564 363 653.364C369 635.764 384 618.164 401.3 608.364C410 603.464 418.7 603.564 437.5 604.464H437.7C445.3 604.764 453.9 605.164 463.1 604.964C491.2 604.364 520.3 595.764 545.2 580.964C602 547.464 634.4 486.064 630 420.364ZM461.9 562.764C454 562.964 446.4 562.664 439 562.264C418 561.364 399.8 560.564 380.2 571.664C354.1 586.464 332.1 612.564 322.8 639.764C317.7 654.664 315.4 670.464 313.2 685.664C309.4 711.564 305.5 738.364 287.7 762.064C263.2 794.664 224.3 814.164 183.7 814.264C183.6 814.264 183.5 814.264 183.4 814.264C179.4 814.264 175.4 814.064 171.4 813.664C135.7 810.364 102.6 792.264 80.5 763.964C58.4 735.664 48.9 699.064 54.4 663.564C60.2 626.264 83.3 592.064 116.1 572.164C133.9 561.364 153.8 554.464 170.6 553.364C178.7 552.864 186.6 552.664 194.3 552.564C214.1 552.264 232.9 551.964 252.2 544.464C269.9 537.564 285.9 527.264 298.5 514.564C312.2 500.864 321.4 484.664 325.2 467.764C327.5 457.464 327.3 445.864 327 434.664C326.9 429.564 326.8 424.364 326.9 419.364C327.6 392.664 315.3 366.364 292.4 345.464C270.7 325.664 242.5 313.364 215 311.564C207.2 311.064 199.3 311.264 191.6 311.564C177.7 311.964 163.4 312.464 148.9 308.664C131 303.964 113.7 294.964 99.1 282.764C69.8 258.264 52.2 220.764 52.2 182.664C52.2 146.864 67.2 112.164 93.4 87.5644C119.6 62.9644 155.1 50.1644 191 52.4644C232.9 55.0644 272.6 79.3643 294.6 115.964C307.4 137.164 310.8 161.064 314.2 184.064C317.7 208.164 321 230.864 334 250.964C358.3 288.764 398 308.664 437.4 302.864C473 297.564 510 307.764 538.7 330.664C567 353.264 584.8 386.364 587.6 421.564C591.5 471.964 566.9 519.064 523.3 544.564C504.7 555.764 482.9 562.264 461.9 562.764Z" fill="#11AFDF"/>
<path d="M639.8 417.564L639.4 412.964H639.3C636.8 389.164 629.7 366.364 618.1 345.264C606.4 323.964 590.6 305.364 571.4 289.964C531.4 258.064 479.8 243.964 429.9 251.364C407.3 254.664 388.3 238.864 378 222.864C371.2 212.264 368.8 195.764 366 176.664C362.1 149.764 357.7 119.264 339.4 89.0644C324.3 64.0644 303.1 42.6644 278 27.1644C252.6 11.4644 223.6 2.26435 194.3 0.364355C144.1 -2.83565 94.3 15.1644 57.7 49.5644C21.1 83.9644 0 132.564 0 182.764C0 209.164 6 235.964 17.3 260.164C28.6 284.264 45.3 305.964 65.6 322.964C86.1 340.064 110.3 352.664 135.6 359.364C157.4 365.064 177.2 364.464 193.2 363.964C199.6 363.764 206.3 363.564 211.6 363.864C227 364.864 244.5 372.664 257.1 384.264C263.8 390.364 275 402.964 274.6 418.264C274.4 424.364 274.6 430.064 274.7 435.564V436.064C274.9 443.764 275 452.464 274.1 456.564C270.6 472.164 254.5 487.664 233.1 495.964C222.5 500.064 209.7 500.264 193.4 500.464H193.2C184.9 500.564 176.4 500.664 166.9 501.364C132.8 503.664 103.3 518.764 88.8 527.664C66.3 541.264 46.6 560.064 31.8 581.964C16.7 604.164 6.60001 629.664 2.60001 655.764C-5.09999 705.464 8.2 756.664 39.2 796.264C70.1 835.864 116.6 861.264 166.6 865.764C172.2 866.264 177.8 866.564 183.3 866.564C240.3 866.564 294.9 839.264 329.3 793.464C355.1 759.164 360.5 722.564 364.7 693.264C366.7 679.764 368.5 667.064 372.1 656.764C377.4 641.364 390.6 625.864 405.9 617.264C411.6 614.064 417.6 613.764 436.7 614.564H436.9C444.6 614.864 453.4 615.264 463 615.064C492.8 614.364 523.7 605.364 549.9 589.664C610.9 553.864 645.3 487.864 639.8 417.564ZM437.5 604.464H437.3C418.5 603.664 409.8 603.464 401.1 608.364C383.9 618.164 368.8 635.764 362.8 653.364C359 664.564 357 677.764 355 691.664C350.9 719.864 345.8 754.964 321.5 787.264C289 830.564 237.4 856.364 183.5 856.364C178.3 856.364 172.9 856.164 167.7 855.664C120.4 851.364 76.6 827.364 47.3 789.964C18.1 752.564 5.5 704.064 12.7 657.164C16.5 632.564 26.1 608.364 40.3 587.464C54.3 566.764 73 549.064 94.2 536.164C107.9 527.764 135.8 513.464 167.8 511.364C177 510.764 185.4 510.664 193.5 510.464H193.7C211 510.264 224.7 510.064 236.9 505.264C261.3 495.764 279.8 477.464 284 458.764C285.2 453.464 285 444.964 284.8 435.764V435.364C284.7 429.964 284.6 424.364 284.7 418.464C285.2 399.164 271.9 384.064 263.9 376.864C249.6 363.864 229.9 355.064 212.3 353.864C210 353.764 207.6 353.664 205.1 353.664C201.2 353.664 197 353.764 193 353.964C177.7 354.464 158.6 355.064 138.2 349.664C114.3 343.364 91.4 331.464 72 315.264C52.8 299.264 37.1 278.764 26.4 255.964C15.7 233.064 10 207.764 10 182.864C10 135.364 29.9 89.5644 64.5 56.9644C99.1 24.4644 146.2 7.46436 193.6 10.4644C221.3 12.1644 248.6 20.9644 272.6 35.7644C296.3 50.3644 316.4 70.6644 330.7 94.2644C347.9 122.764 352.2 152.164 355.9 178.164C358.8 198.364 361.4 215.864 369.4 228.264C381.4 246.864 403.9 265.264 431.1 261.264C478.3 254.264 527.1 267.564 564.9 297.764C583.1 312.264 598 329.864 609.1 350.064C620.8 371.264 627.7 394.264 629.6 418.364L629.8 420.364C634.2 486.164 601.8 547.564 544.8 581.064C520 595.864 490.8 604.464 462.7 605.064C453.6 605.164 445 604.864 437.5 604.464Z" fill="#231F20"/>
<path d="M186.5 670.564V661.564C186.3 655.964 185.3 650.964 183.5 646.764C183.3 646.764 183.1 646.664 182.9 646.664V674.464C184.7 673.464 186.4 672.164 186.5 670.564Z" fill="#F3EED4"/>
<path d="M186.5 169.064V160.064C186.3 154.464 185.3 149.464 183.5 145.264C183.3 145.264 183.1 145.164 182.9 145.164V172.964C184.7 171.964 186.4 170.664 186.5 169.064Z" fill="#F3EED4"/>
<path d="M518.3 536.064C558.6 512.464 581.4 468.964 577.7 422.464C575.1 389.564 559.1 359.764 532.6 338.664C506 317.464 471.9 308.064 438.9 312.964C433.9 313.664 428.8 314.064 423.8 314.064C385.7 314.064 349 292.964 325.6 256.564C311.5 234.564 307.8 209.764 304.3 185.664C300.9 162.564 297.8 140.764 286 121.264C265.6 87.4645 229 65.0645 190.3 62.5645C157.2 60.4645 124.4 72.2645 100.2 94.9645C75.9999 117.664 62.2 149.664 62.2 182.764C62.2 217.964 78.4 252.564 105.5 275.164C119 286.464 134.9 294.764 151.4 299.064C164.4 302.464 177.4 302.064 191.2 301.664C195.7 301.564 200.3 301.364 205 301.364C208.5 301.364 212.1 301.464 215.6 301.664C245.3 303.564 275.8 316.864 299.1 338.164C324.2 361.064 337.6 390.064 336.9 419.764C336.8 424.564 336.9 429.464 337 434.564C337.2 446.364 337.5 458.564 334.9 469.964C330.7 488.664 320.5 506.564 305.5 521.564C291.9 535.164 274.7 546.264 255.7 553.664C234.7 561.864 215 562.164 194.3 562.464C186.8 562.564 179 562.664 171.1 563.164C155.8 564.164 137.6 570.464 121.1 580.564C90.6999 598.964 69.3999 630.564 64.0999 664.964C58.9999 697.764 67.7999 731.564 88.1999 757.664C108.6 783.764 139.2 800.564 172.2 803.564C175.7 803.864 179.3 804.064 183 804.064C183.1 804.064 183.2 804.064 183.3 804.064C220.9 804.064 256.9 786.064 279.6 755.864C295.9 734.264 299.4 709.864 303.2 684.064C305.5 668.364 307.9 652.164 313.3 636.364C323.5 606.464 346.7 579.064 375.3 562.864C397.3 550.364 417.8 551.264 439.4 552.164C446.6 552.464 454 552.764 461.6 552.564C481 552.264 501.1 546.364 518.3 536.064ZM240.7 252.264C236.8 256.564 231.7 258.664 225.5 258.664H208.2C200 258.664 195.3 254.964 192.8 251.964C189.6 247.964 187.6 243.564 187 238.864C185.8 230.864 184.6 224.464 183.3 219.764L182.9 219.864V238.064C183.2 243.264 181.4 248.064 177.6 252.264C173.7 256.564 168.6 258.664 162.4 258.664H145.1C138.6 258.664 133.4 256.464 129.5 252.264C125.8 248.164 123.9 243.364 123.9 238.164V125.364C123.9 125.264 123.9 125.264 123.9 125.164C124.2 117.264 126.4 110.464 130.5 105.064C134.9 99.2645 139.9 96.1645 145.3 95.9645C145.4 95.9645 145.4 95.9645 145.5 95.9645H193.8C193.9 95.9645 194 95.9645 194.1 95.9645C206.2 96.6645 216.7 101.564 225.4 110.464C233.8 119.064 239.3 128.264 241.9 137.664C244.4 146.764 245.6 156.364 245.3 166.364C244.9 180.964 240.9 192.264 233.4 200.264C240.2 211.064 244.4 223.664 246.1 237.664C246.1 237.764 246.1 237.864 246.1 237.964C246.3 243.264 244.5 248.064 240.7 252.264ZM240.7 753.764C236.8 758.064 231.7 760.164 225.5 760.164H208.2C200 760.164 195.3 756.464 192.8 753.464C189.6 749.464 187.6 745.064 187 740.364C185.8 732.364 184.6 725.964 183.3 721.264L182.9 721.364V739.564C183.2 744.764 181.4 749.564 177.6 753.764C173.7 758.064 168.6 760.164 162.4 760.164H145.1C138.6 760.164 133.4 757.964 129.5 753.764C125.8 749.664 123.9 744.864 123.9 739.664V626.764C123.9 626.664 123.9 626.664 123.9 626.564C124.2 618.664 126.4 611.864 130.5 606.464C134.9 600.664 139.9 597.564 145.3 597.364C145.4 597.364 145.4 597.364 145.5 597.364H193.8C193.9 597.364 194 597.364 194.1 597.364C206.2 598.064 216.7 602.964 225.4 611.864C233.8 620.464 239.3 629.664 241.9 639.064C244.4 648.164 245.6 657.764 245.3 667.764C244.9 682.364 240.9 693.664 233.4 701.664C240.2 712.464 244.4 725.064 246.1 739.064C246.1 739.164 246.1 739.264 246.1 739.364C246.3 744.764 244.5 749.564 240.7 753.764ZM455 506.864C414.4 506.864 381.4 473.864 381.4 433.264C381.4 392.664 414.4 359.664 455 359.664C495.6 359.664 528.6 392.664 528.6 433.264C528.6 473.864 495.5 506.864 455 506.864Z" fill="#F3EED4"/>
<path d="M587.7 421.564C584.9 386.364 567.1 353.264 538.8 330.664C510 307.764 473.1 297.564 437.5 302.864C398.1 308.664 358.4 288.764 334.1 250.964C321.1 230.864 317.8 208.064 314.3 184.064C310.9 160.964 307.5 137.164 294.7 115.964C272.7 79.4645 233 55.1645 191.1 52.4645C155.3 50.2645 119.7 63.0645 93.5 87.5645C67.3 112.164 52.3 146.764 52.3 182.664C52.3 220.764 69.8 258.164 99.2 282.764C113.8 294.964 131.1 303.964 149 308.664C163.4 312.464 177.8 311.964 191.7 311.564C199.4 311.364 207.4 311.064 215.1 311.564C242.6 313.364 270.8 325.664 292.5 345.464C315.5 366.364 327.7 392.664 327 419.364C326.9 424.364 327 429.564 327.1 434.664C327.3 445.864 327.6 457.464 325.3 467.764C321.5 484.664 312.3 500.864 298.6 514.564C286 527.264 270 537.564 252.3 544.464C232.9 551.964 214.2 552.264 194.4 552.564C186.7 552.664 178.8 552.764 170.7 553.364C153.9 554.464 134 561.364 116.2 572.164C83.3 592.064 60.3 626.264 54.5 663.564C49 699.064 58.5 735.664 80.6 763.964C102.7 792.264 135.9 810.364 171.5 813.664C175.4 814.064 179.5 814.264 183.5 814.264C183.6 814.264 183.7 814.264 183.8 814.264C224.4 814.164 263.2 794.664 287.8 762.064C305.6 738.364 309.5 711.564 313.3 685.664C315.5 670.464 317.8 654.664 322.9 639.764C332.2 612.564 354.2 586.464 380.3 571.664C399.9 560.564 418 561.364 439.1 562.264C446.4 562.564 454 562.864 462 562.764C483 562.264 504.9 555.864 523.5 544.664C567 519.064 591.7 471.964 587.7 421.564ZM439.5 552.264C417.9 551.364 397.4 550.464 375.4 562.964C346.8 579.164 323.6 606.664 313.4 636.464C308 652.264 305.6 668.464 303.3 684.164C299.5 709.964 296 734.364 279.7 755.964C257 786.164 221 804.164 183.4 804.164C183.3 804.164 183.2 804.164 183.1 804.164C179.5 804.164 175.9 803.964 172.3 803.664C139.3 800.664 108.7 783.964 88.3001 757.764C67.9001 731.664 59.1 697.864 64.2 665.064C69.5 630.664 90.9 599.064 121.2 580.664C137.7 570.664 155.9 564.364 171.2 563.264C179 562.764 186.8 562.664 194.4 562.564C215.2 562.264 234.8 561.964 255.8 553.764C274.8 546.364 292 535.264 305.6 521.664C320.6 506.664 330.8 488.764 335 470.064C337.6 458.564 337.3 446.464 337.1 434.664C337 429.464 336.9 424.664 337 419.864C337.8 390.164 324.4 361.164 299.2 338.264C275.9 316.964 245.5 303.664 215.7 301.764C212.2 301.564 208.6 301.464 205.1 301.464C200.4 301.464 195.8 301.564 191.3 301.764C177.5 302.164 164.5 302.564 151.5 299.164C135 294.764 119.1 286.564 105.6 275.264C78.5 252.564 62.3 218.064 62.3 182.864C62.3 149.764 76.2001 117.764 100.3 95.0645C124.5 72.3645 157.3 60.5645 190.4 62.6645C229.1 65.0645 265.7 87.5645 286.1 121.364C297.8 140.864 301 162.664 304.4 185.764C307.9 209.864 311.5 234.664 325.7 256.664C349.1 293.064 385.7 314.164 423.9 314.164C428.9 314.164 434 313.764 439 313.064C471.9 308.164 506.1 317.564 532.7 338.764C559.2 359.864 575.3 389.664 577.8 422.564C581.4 469.064 558.7 512.664 518.4 536.164C501.2 546.464 481.1 552.464 461.8 552.864C454 552.964 446.6 552.564 439.5 552.264Z" fill="#231F20"/>
<path d="M222.7 202.364C221.2 200.264 221.6 197.264 223.6 195.564C231.1 189.464 234.9 179.864 235.2 166.064C235.4 157.064 234.4 148.464 232.1 140.264C229.9 132.464 225.2 124.764 218 117.364C211.1 110.164 203.1 106.464 193.5 105.864H145.5C143.3 105.964 140.9 107.664 138.4 110.964C135.5 114.764 134 119.464 133.8 125.264V238.264C133.8 240.964 134.8 243.364 136.9 245.564C138.8 247.664 141.5 248.764 145.1 248.764H162.4C165.8 248.764 168.3 247.764 170.2 245.564C172.2 243.364 173.1 241.164 172.9 238.564C172.9 238.464 172.9 238.364 172.9 238.264V216.464C172.9 214.364 174.2 212.564 176.1 211.764L184.6 208.464C185.2 208.264 185.8 208.164 186.4 208.164C187.1 208.164 187.8 208.264 188.4 208.564C189.6 209.064 190.6 210.064 191.1 211.364C193.2 216.864 195.1 225.364 196.9 237.564C197.3 240.564 198.5 243.164 200.5 245.764C201.6 247.064 203.5 248.764 208.1 248.764H225.5C228.9 248.764 231.4 247.764 233.3 245.564C235.3 243.364 236.1 241.164 236 238.664C234.3 224.764 229.9 212.564 222.7 202.364ZM196.5 169.264C196.5 169.364 196.5 169.564 196.5 169.664C196.1 176.464 190.9 181.364 181.2 184.364C180.7 184.464 180.2 184.564 179.7 184.564H177.8C175 184.564 172.8 182.364 172.8 179.564V140.064C172.8 137.464 174.9 135.264 177.5 135.064C182.5 134.764 186.3 135.264 189.1 136.664C190.1 137.164 190.9 137.964 191.4 138.864C194.4 144.764 196.1 151.864 196.4 159.764C196.4 159.864 196.4 159.864 196.4 159.964V169.264H196.5Z" fill="#E7203D"/>
<path d="M245.9 237.664C244.3 223.664 240 211.064 233.2 200.264C240.8 192.364 244.8 180.964 245.1 166.364C245.4 156.464 244.2 146.764 241.7 137.664C239.1 128.264 233.5 119.064 225.2 110.464C216.5 101.564 206 96.6644 193.9 95.9644C193.8 95.9644 193.7 95.9644 193.6 95.9644H145.3C145.2 95.9644 145.2 95.9644 145.1 95.9644C139.7 96.1644 134.7 99.1644 130.3 105.064C126.2 110.464 123.9 117.264 123.7 125.164C123.7 125.264 123.7 125.264 123.7 125.364V238.264C123.7 243.464 125.6 248.164 129.3 252.364C133.2 256.664 138.4 258.764 144.9 258.764H162.2C168.4 258.764 173.6 256.564 177.4 252.364C181.2 248.164 182.9 243.364 182.7 238.164V219.964L183.1 219.864C184.4 224.564 185.6 230.964 186.8 238.964C187.4 243.664 189.4 248.064 192.6 252.064C195.1 255.164 199.8 258.764 208 258.764H225.5C231.7 258.764 236.9 256.564 240.7 252.364C244.5 248.164 246.3 243.264 245.9 237.964C245.9 237.864 245.9 237.764 245.9 237.664ZM233.3 245.564C231.4 247.664 228.9 248.764 225.5 248.764H208.2C203.6 248.764 201.6 247.064 200.6 245.764C198.5 243.264 197.3 240.564 197 237.564C195.2 225.364 193.3 216.864 191.2 211.364C190.7 210.164 189.8 209.164 188.5 208.564C187.9 208.264 187.2 208.164 186.5 208.164C185.9 208.164 185.3 208.264 184.7 208.464L176.2 211.764C174.3 212.564 173 214.364 173 216.464V238.264C173 238.364 173 238.464 173 238.564C173.2 241.164 172.3 243.364 170.3 245.564C168.4 247.664 165.9 248.764 162.5 248.764H145.2C141.6 248.764 138.9 247.764 137 245.564C134.9 243.264 133.9 240.864 133.9 238.264V125.364C134.1 119.564 135.6 114.864 138.5 111.064C141 107.764 143.4 106.064 145.6 105.964H193.7C203.3 106.564 211.3 110.264 218.2 117.464C225.4 124.864 230.1 132.564 232.3 140.364C234.6 148.464 235.6 157.164 235.4 166.164C235.1 179.864 231.3 189.564 223.8 195.664C221.8 197.364 221.4 200.264 222.9 202.464C230.1 212.664 234.6 224.864 236.2 238.764C236.1 241.164 235.2 243.364 233.3 245.564Z" fill="#231F20"/>
<path d="M191.5 138.964C191 137.964 190.2 137.164 189.2 136.764C186.3 135.364 182.5 134.864 177.6 135.164C175 135.364 172.9 137.464 172.9 140.164V179.664C172.9 182.464 175.1 184.664 177.9 184.664H179.8C180.3 184.664 180.8 184.564 181.3 184.464C191 181.464 196.2 176.564 196.6 169.764C196.6 169.664 196.6 169.464 196.6 169.364V160.164C196.6 160.064 196.6 160.064 196.6 159.964C196.2 151.864 194.5 144.864 191.5 138.964ZM182.8 145.164C183 145.164 183.2 145.264 183.4 145.264C185.2 149.464 186.2 154.464 186.4 160.064V169.064C186.3 170.664 184.6 171.964 182.7 172.964V145.164H182.8Z" fill="#231F20"/>
<path d="M222.7 703.864C221.2 701.764 221.6 698.764 223.6 697.064C231.1 690.964 234.9 681.364 235.2 667.564C235.4 658.564 234.4 649.964 232.1 641.764C229.9 633.964 225.2 626.264 218 618.864C211.1 611.664 203.1 607.964 193.5 607.364H145.5C143.3 607.464 140.9 609.164 138.4 612.464C135.5 616.264 134 620.964 133.8 626.764V739.564C133.8 742.264 134.8 744.664 136.9 746.864C138.8 748.964 141.5 750.064 145.1 750.064H162.4C165.8 750.064 168.3 749.064 170.2 746.864C172.2 744.664 173.1 742.464 172.9 739.864C172.9 739.764 172.9 739.664 172.9 739.564V717.764C172.9 715.664 174.2 713.864 176.1 713.064L184.6 709.764C185.2 709.564 185.8 709.464 186.4 709.464C187.1 709.464 187.8 709.564 188.4 709.864C189.6 710.364 190.6 711.364 191.1 712.664C193.2 718.164 195.1 726.664 196.9 738.864C197.3 741.864 198.5 744.464 200.5 747.064C201.6 748.364 203.5 750.064 208.1 750.064H225.5C228.9 750.064 231.4 749.064 233.3 746.864C235.3 744.664 236.1 742.464 236 739.964C234.3 726.264 229.9 714.064 222.7 703.864ZM196.5 670.764C196.5 670.864 196.5 671.064 196.5 671.164C196.1 677.964 190.9 682.864 181.2 685.864C180.7 685.964 180.2 686.064 179.7 686.064H177.8C175 686.064 172.8 683.864 172.8 681.064V641.564C172.8 638.964 174.9 636.764 177.5 636.564C182.5 636.264 186.3 636.764 189.1 638.164C190.1 638.664 190.9 639.464 191.4 640.364C194.4 646.264 196.1 653.364 196.4 661.264C196.4 661.364 196.4 661.364 196.4 661.464V670.764H196.5Z" fill="#E7203D"/>
<path d="M245.9 739.164C244.3 725.164 240 712.564 233.2 701.764C240.8 693.864 244.8 682.464 245.1 667.864C245.4 657.964 244.2 648.264 241.7 639.164C239.1 629.764 233.5 620.564 225.2 611.964C216.5 603.064 206 598.164 193.9 597.464C193.8 597.464 193.7 597.464 193.6 597.464H145.3C145.2 597.464 145.2 597.464 145.1 597.464C139.7 597.664 134.7 600.664 130.3 606.564C126.2 611.964 123.9 618.764 123.7 626.664C123.7 626.764 123.7 626.764 123.7 626.864V739.764C123.7 744.964 125.6 749.664 129.3 753.864C133.2 758.164 138.4 760.264 144.9 760.264H162.2C168.4 760.264 173.6 758.064 177.4 753.864C181.2 749.664 182.9 744.864 182.7 739.664V721.464L183.1 721.364C184.4 726.064 185.6 732.464 186.8 740.464C187.4 745.164 189.4 749.564 192.6 753.564C195.1 756.664 199.8 760.264 208 760.264H225.5C231.7 760.264 236.9 758.064 240.7 753.864C244.5 749.664 246.3 744.764 245.9 739.464C245.9 739.364 245.9 739.264 245.9 739.164ZM233.3 747.064C231.4 749.264 228.9 750.264 225.5 750.264H208.2C203.6 750.264 201.6 748.564 200.6 747.264C198.5 744.764 197.3 742.064 197 739.064C195.2 726.864 193.3 718.364 191.2 712.864C190.7 711.664 189.8 710.664 188.5 710.064C187.9 709.764 187.2 709.664 186.5 709.664C185.9 709.664 185.3 709.764 184.7 709.964L176.2 713.264C174.3 713.964 173 715.864 173 717.964V739.764C173 739.864 173 739.964 173 740.064C173.2 742.664 172.3 744.864 170.3 747.064C168.4 749.264 165.9 750.264 162.5 750.264H145.2C141.6 750.264 138.9 749.264 137 747.064C134.9 744.764 133.9 742.364 133.9 739.764V626.864C134.1 621.064 135.6 616.364 138.5 612.564C141 609.264 143.4 607.564 145.6 607.464H193.7C203.3 608.064 211.3 611.764 218.2 618.964C225.4 626.364 230.1 634.064 232.3 641.864C234.6 649.964 235.6 658.664 235.4 667.664C235.1 681.364 231.3 691.064 223.8 697.164C221.8 698.864 221.4 701.764 222.9 703.964C230.1 714.164 234.6 726.364 236.2 740.264C236.1 742.664 235.2 744.864 233.3 747.064Z" fill="#231F20"/>
<path d="M191.5 640.364C191 639.364 190.2 638.564 189.2 638.164C186.3 636.764 182.5 636.264 177.6 636.564C175 636.764 172.9 638.864 172.9 641.564V681.064C172.9 683.864 175.1 686.064 177.9 686.064H179.8C180.3 686.064 180.8 685.964 181.3 685.864C191 682.864 196.2 677.964 196.6 671.164C196.6 671.064 196.6 670.864 196.6 670.764V661.564C196.6 661.464 196.6 661.464 196.6 661.364C196.2 653.364 194.5 646.364 191.5 640.364ZM182.8 646.664C183 646.664 183.2 646.764 183.4 646.764C185.2 650.964 186.2 655.964 186.4 661.564V670.564C186.3 672.164 184.6 673.464 182.7 674.464V646.664H182.8Z" fill="#231F20"/>
<path d="M465.204 496.032C499.877 490.405 523.422 457.736 517.795 423.064C512.168 388.392 479.499 364.846 444.827 370.473C410.155 376.1 386.609 408.769 392.236 443.442C397.863 478.114 430.532 501.66 465.204 496.032Z" fill="#E7203D"/>
<path d="M528.5 433.264C528.5 392.664 495.5 359.664 454.9 359.664C414.3 359.664 381.3 392.664 381.3 433.264C381.3 473.864 414.3 506.864 454.9 506.864C495.5 506.864 528.5 473.864 528.5 433.264ZM391.4 433.264C391.4 398.164 419.9 369.664 455 369.664C490.1 369.664 518.5 398.164 518.5 433.264C518.5 468.364 490 496.864 454.9 496.864C419.8 496.864 391.4 468.364 391.4 433.264Z" fill="#231F20"/>
</g>
<defs>
<clipPath id="clip0_151_102">
<rect width="641" height="867" fill="white"/>
</clipPath>
</defs>
</svg>
