<svg width="100" height="100" viewBox="0 0 100 100" fill="none" xmlns="http://www.w3.org/2000/svg">
<path d="M65.6 65.4C68.5 65.1 70.7 62.6 70.6 59.6C70.5 56.6 68 54.2 65 54.2H64.8C61.7 54.3 59.3 56.9 59.4 60C59.5 61.5 60.1 62.8 61 63.7C57.6 70.4 52.4 75.3 44.6 79.4C39.3 82.2 33.8 83.2 28.3 82.5C23.8 81.9 20.3 79.9 18.1 76.6C14.9 71.7 14.6 66.4 17.3 61.1C19.2 57.3 22.2 54.5 24.1 53.1C23.7 51.8 23.1 49.6 22.8 48C8.30001 58.5 9.80001 72.7 14.2 79.4C17.5 84.4 24.2 87.5 31.6 87.5C33.6 87.5 35.6 87.3 37.6 86.8C50.4 84.3 60.1 76.7 65.6 65.4Z" fill="#764ABC"/>
<path d="M83.2001 52.9997C75.6001 44.0997 64.4001 39.1997 51.6001 39.1997H50.0001C49.1001 37.3997 47.2001 36.1997 45.1001 36.1997H44.9001C41.8001 36.2997 39.4001 38.8997 39.5001 41.9997C39.6001 44.9997 42.1001 47.3997 45.1001 47.3997H45.3001C47.5001 47.2997 49.4001 45.8997 50.2001 43.9997H52.0001C59.6001 43.9997 66.8001 46.1997 73.3001 50.4997C78.3001 53.7997 81.9001 58.0997 83.9001 63.2997C85.6001 67.4997 85.5001 71.5997 83.7001 75.0997C80.9001 80.3997 76.2001 83.2997 70.0001 83.2997C66.0001 83.2997 62.2001 82.0997 60.2001 81.1997C59.1001 82.1997 57.1001 83.7997 55.7001 84.7997C60.0001 86.7997 64.4001 87.8997 68.6001 87.8997C78.2001 87.8997 85.3001 82.5997 88.0001 77.2997C90.9001 71.4997 90.7001 61.4997 83.2001 52.9997Z" fill="#764ABC"/>
<path d="M32.4 67.0998C32.5 70.0998 35 72.4998 38 72.4998H38.2C41.3 72.3998 43.7 69.7998 43.6 66.6998C43.5 63.6998 41 61.2998 38 61.2998H37.8C37.6 61.2998 37.3 61.2998 37.1 61.3998C33 54.5998 31.3 47.1998 31.9 39.1998C32.3 33.1998 34.3 27.9998 37.8 23.6998C40.7 19.9998 46.3 18.1998 50.1 18.0998C60.7 17.8998 65.2 31.0998 65.5 36.3998C66.8 36.6998 69 37.3998 70.5 37.8998C69.3 21.6998 59.3 13.2998 49.7 13.2998C40.7 13.2998 32.4 19.7998 29.1 29.3998C24.5 42.1998 27.5 54.4998 33.1 64.1998C32.6 64.8998 32.3 65.9998 32.4 67.0998Z" fill="#764ABC"/>
</svg>
