<svg width="185" height="126" viewBox="0 0 185 126" fill="none" xmlns="http://www.w3.org/2000/svg">
<g clip-path="url(#clip0_119_2641)">
<path d="M65.8184 17.7095C76.5446 17.7095 85.2671 26.4319 85.2671 37.1582C85.2671 47.8845 76.5446 56.607 65.8184 56.607C55.0921 56.607 46.3696 47.8845 46.3696 37.1582C46.3696 26.4319 55.0921 17.7095 65.8184 17.7095ZM65.8184 0.0288086C45.3088 0.0288086 28.689 16.6486 28.689 37.1582C28.689 57.6678 45.3088 74.2876 65.8184 74.2876C86.3279 74.2876 102.948 57.6678 102.948 37.1582C102.948 16.6486 86.3279 0.0288086 65.8184 0.0288086Z" fill="#F29F7F"/>
<path d="M132.416 0.0288086H112.967V74.2876H132.416V0.0288086Z" fill="#F29F7F"/>
<path d="M155.4 27.1392H132.416V46.5879H155.4V27.1392Z" fill="#F29F7F"/>
<path d="M175.203 34.0938C175.203 41.3428 174.26 48.4151 172.492 55.1337C163.18 90.7898 130.765 117.075 92.2215 117.075C52.1453 117.075 18.6699 88.6091 10.9494 50.8314C9.82959 45.4094 9.24023 39.8105 9.24023 34.0938" stroke="#F29F7F" stroke-width="17.6807" stroke-miterlimit="10"/>
</g>
<defs>
<clipPath id="clip0_119_2641">
<rect width="183.643" height="125.886" fill="white" transform="translate(0.399902 0.0288086)"/>
</clipPath>
</defs>
</svg>
